<svg width="40" height="48" viewBox="0 0 40 48" fill="none" xmlns="http://www.w3.org/2000/svg">
<path d="M28.6569 0.295895C26.4312 0.552926 23.2812 2.51621 21.7171 4.61621C20.8147 5.81933 20.2843 6.96777 19.8249 8.69589L19.5952 9.55996L19.6062 10.4787C19.6171 10.9818 19.6444 11.4521 19.6718 11.5287C19.7429 11.7092 19.8796 11.7365 20.8421 11.742C21.6405 11.7475 21.6897 11.742 22.3733 11.5396C24.1999 11.0092 25.5397 10.2107 26.4913 9.07871C26.721 8.7998 27.0655 8.42793 27.246 8.24199C27.8476 7.65136 28.6187 6.33886 29.0452 5.20136C29.4718 4.05839 29.6632 2.99746 29.7179 1.48808L29.7507 0.520113L29.6085 0.377926C29.4499 0.219332 29.3624 0.213863 28.6569 0.295895Z" fill="#717171"/>
<path d="M28.1483 11.5998C27.0655 11.6545 24.1507 12.4639 22.0562 13.2842C20.7874 13.7818 20.7874 13.7818 20.5358 13.8256C20.0983 13.8967 19.0265 13.585 17.1835 12.8412C16.2046 12.4529 15.1983 12.1576 13.7108 11.8185C13.0874 11.6818 12.0538 11.6654 11.6054 11.7912C11.4249 11.8404 10.8562 11.9553 10.3421 12.0428C9.23741 12.2396 8.61397 12.431 7.78272 12.8412C5.27257 14.0662 3.56085 15.8271 2.2046 18.5834C1.60303 19.7975 1.16007 20.9842 0.831941 22.2475C0.345222 24.1232 0.334285 27.7217 0.810066 29.9037C0.864753 30.1717 0.913972 30.4889 0.913972 30.6146C0.913972 30.8771 0.963191 31.074 1.42257 32.8842C1.84913 34.5576 1.80538 34.4209 2.62022 36.4662C3.76319 39.3373 4.12413 39.9717 6.45928 43.1928C7.41632 44.5107 7.90303 45.1123 8.6085 45.8287C9.34678 46.5834 9.94288 47.0209 10.7851 47.4365C11.7366 47.9014 12.1523 48.0053 13.0273 47.9998C14.1483 47.9998 15.0507 47.7701 16.7679 47.0482C17.8507 46.5943 17.9218 46.5725 19.8905 46.1678C20.4812 46.042 21.028 46.0529 21.8593 46.1896C22.1437 46.2334 22.5702 46.299 22.7999 46.3318C23.2648 46.3975 23.7351 46.5506 24.9491 47.0373C26.4148 47.6279 27.4483 47.8904 28.5312 47.956C30.1062 48.0545 31.6265 47.3545 33.2507 45.7959C34.9077 44.1935 36.4554 42.0006 38.0194 39.042C38.4405 38.2435 39.1132 36.6084 39.228 36.1162C39.2773 35.9193 39.3593 35.6732 39.4194 35.5748C39.4741 35.4764 39.5233 35.3396 39.5233 35.2795C39.5233 35.0826 39.1241 34.7709 38.4187 34.4154C37.0898 33.7318 35.7827 32.5615 34.9023 31.2435C34.2733 30.2975 33.639 28.881 33.4804 28.0443C33.2124 26.6662 33.1358 25.1568 33.289 24.1068C33.3273 23.8334 33.464 23.2592 33.5952 22.8217C34.1585 20.924 34.5468 20.1639 35.4273 19.2232C35.6952 18.9443 35.914 18.6873 35.914 18.6654C35.914 18.5725 37.2538 17.4514 37.5819 17.2709C37.7624 17.167 37.9921 17.0084 38.0905 16.91C38.3913 16.6146 38.3476 16.4998 37.5929 15.6139C36.5812 14.4271 35.3069 13.4537 33.8085 12.7264C32.8733 12.2725 32.228 12.0482 31.3257 11.8623C30.4015 11.6654 29.0233 11.5506 28.1483 11.5998Z" fill="#717171"/>
</svg>
